<svg width="534" height="418" viewBox="0 0 534 418" fill="none" xmlns="http://www.w3.org/2000/svg">
<rect width="534" height="418" fill="#07AF77"/>
<path d="M346.515 114H187.485C183.383 114.006 179.45 115.638 176.548 118.537C173.646 121.436 172.01 125.367 172 129.469V288.499C172.002 292.607 173.634 296.546 176.537 299.452C179.44 302.358 183.377 303.994 187.485 304H346.515C350.623 303.994 354.56 302.358 357.463 299.452C360.366 296.546 361.998 292.607 362 288.499V129.469C361.99 125.367 360.354 121.436 357.452 118.537C354.55 115.638 350.617 114.006 346.515 114V114ZM338.25 288.167L195.75 288.483C193.65 288.483 191.637 287.649 190.152 286.165C188.667 284.68 187.833 282.666 187.833 280.567L187.501 137.75C187.501 135.65 188.335 133.637 189.82 132.152C191.304 130.667 193.318 129.833 195.417 129.833L338.25 129.485C340.35 129.485 342.363 130.319 343.848 131.804C345.333 133.288 346.167 135.302 346.167 137.402V280.25C346.167 282.35 345.333 284.363 343.848 285.848C342.363 287.333 340.35 288.167 338.25 288.167Z" fill="white"/>
<path d="M259.083 179.297H326.375C327.95 179.297 329.46 178.671 330.574 177.558C331.687 176.444 332.313 174.934 332.313 173.359C332.313 171.785 331.687 170.274 330.574 169.161C329.46 168.047 327.95 167.422 326.375 167.422H259.083C257.509 167.422 255.999 168.047 254.885 169.161C253.772 170.274 253.146 171.785 253.146 173.359C253.146 174.934 253.772 176.444 254.885 177.558C255.999 178.671 257.509 179.297 259.083 179.297Z" fill="white"/>
<path d="M259.083 214.922H326.375C327.95 214.922 329.46 214.296 330.574 213.183C331.687 212.069 332.313 210.559 332.313 208.984C332.313 207.41 331.687 205.899 330.574 204.786C329.46 203.672 327.95 203.047 326.375 203.047H259.083C257.509 203.047 255.999 203.672 254.885 204.786C253.772 205.899 253.146 207.41 253.146 208.984C253.146 210.559 253.772 212.069 254.885 213.183C255.999 214.296 257.509 214.922 259.083 214.922Z" fill="white"/>
<path d="M259.083 250.547H302.625C304.2 250.547 305.71 249.921 306.824 248.808C307.937 247.694 308.563 246.184 308.563 244.609C308.563 243.035 307.937 241.524 306.824 240.411C305.71 239.297 304.2 238.672 302.625 238.672H259.083C257.509 238.672 255.999 239.297 254.885 240.411C253.772 241.524 253.146 243.035 253.146 244.609C253.146 246.184 253.772 247.694 254.885 248.808C255.999 249.921 257.509 250.547 259.083 250.547Z" fill="white"/>
<path d="M231.375 216.9H206.636C202.81 216.9 199.708 220.002 199.708 223.827V248.567C199.708 252.393 202.81 255.494 206.636 255.494H231.375C235.201 255.494 238.302 252.393 238.302 248.567V223.827C238.302 220.002 235.201 216.9 231.375 216.9Z" fill="white"/>
<path d="M231.375 158.516H206.636C202.81 158.516 199.708 161.617 199.708 165.443V190.182C199.708 194.008 202.81 197.109 206.636 197.109H231.375C235.201 197.109 238.302 194.008 238.302 190.182V165.443C238.302 161.617 235.201 158.516 231.375 158.516Z" fill="white"/>
</svg>
